<svg xmlns="http://www.w3.org/2000/svg" version="1.1" xmlns:xlink="http://www.w3.org/1999/xlink" xmlns:svgjs="http://svgjs.dev/svgjs" width="100%" height="100%" viewBox="0 0 1000 600"><rect width="1000" height="600" x="0" y="0" fill="#554994"/><g><circle r="166.66666666666666" cx="331.9743143717448" cy="354.1965670289894" fill="#aac4ff" transform="matrix(0.7561656290518322,0,0,0.7561656290518319,0,32.16873039812195)"/><path d="M353.80328855254703 295.31224648044554L353.80328855254703 405.31943327142227Q353.80328855254703 411.7603244137651 352.9948084928387 416.31476208345515Q352.1863284331304 420.8422504178216 350.7849629963027 423.6988799621243Q349.35664822415134 426.5285601711034 347.30849873955697 427.84907760196035Q345.2872985902862 429.1965443681408 342.9157570818085 429.1965443681408L342.9157570818085 429.1965443681408Q341.1101516151266 429.1965443681408 338.9272554539142 427.9568749432547Q336.74435929270174 426.71720551836864 334.8040071494018 424.9116000516868Q332.8636550061019 423.1329439203285 331.5970362458922 421.21954111235226Q330.3034681503589 419.3330876396995 330.3034681503589 417.90477286754816L330.3034681503589 417.90477286754816Q330.3034681503589 416.96154613122184 330.54601216827143 416.7190021133093Q330.78855618618394 416.5034074307204 331.21974555136165 416.530356766044Q331.6509349165394 416.5842554366913 332.24382029365887 416.7729007839566Q332.8636550061019 416.96154613122184 333.618236395163 416.96154613122184L333.618236395163 416.96154613122184Q336.28622059220044 416.96154613122184 337.4719913464392 413.59287921577055Q338.6577621006781 410.25116163564286 338.6577621006781 402.8400944216501L338.6577621006781 402.8400944216501L338.6577621006781 295.68953717497607Q329.6566841025923 296.4441185640371 321.3023901522731 298.86955874316203Q312.9750455372776 301.29499892228694 306.61500240090555 306.11892994521315Q300.2819085998572 310.94286096813937 296.48205231922816 318.6773202060155Q292.70914537392275 326.384830108568 292.70914537392275 337.6766016091606L292.70914537392275 337.6766016091606Q292.70914537392275 342.6891779793522 293.7062707808963 346.7046289425701Q294.6764468525463 350.74702924111165 296.2934069719629 353.95400014462126Q297.9103670913795 357.18792038345447 299.85071923467945 359.640309897903Q301.79107137797934 362.11964874767506 303.6775248506321 364.0061022203278L303.6775248506321 364.0061022203278Q305.2944849700487 363.5210141845028 305.968218353139 364.38339291485835Q306.61500240090555 365.2457716452139 306.61500240090555 366.754934423336L306.61500240090555 366.754934423336Q306.61500240090555 368.64138789598877 305.8334716765209 370.6895373805831Q305.0249916168126 372.71073752985393 303.6775248506321 374.3815963199177Q302.3570074197752 376.0255057746579 300.71309796503493 377.130428522926Q299.04223917497114 378.2084019358704 297.3444310495837 378.2084019358704L297.3444310495837 378.2084019358704Q296.5898496605226 378.2084019358704 295.8622176067851 378.01975658860516Q295.16153488837125 377.8311112413398 294.4069534993102 377.1843271935732L294.4069534993102 377.1843271935732Q292.33185467939217 375.6482150801274 289.3943771291187 372.1987001587053Q286.4568995788452 368.74918523728326 283.7889153818078 363.6288115257973Q281.14788052009396 358.5084378143113 279.23447771211767 351.9327999953504Q277.3480242394649 345.33021284106593 277.3480242394649 337.6766016091606L277.3480242394649 337.6766016091606Q277.3480242394649 323.6359979055598 282.5492459569217 312.93711178208656Q287.7774170097021 302.2382256586133 297.047988361024 294.9888544565622Q306.3455090476695 287.739483254511 319.0925446557371 284.04742431517644Q331.83958026380475 280.35536537584187 346.9851067156736 280.35536537584187L346.9851067156736 280.35536537584187Q350.48852030774293 280.35536537584187 355.4741473426108 280.38231471116546Q360.4328250421551 280.43621338181265 365.36455340637576 280.54401072310714Q370.2962817705964 280.6248587290779 374.2308847278435 280.6787573997252Q378.1654876850906 280.7326560703724 379.5668531219183 280.7326560703724L379.5668531219183 280.7326560703724Q380.8065225468044 280.7326560703724 381.6150026065127 280.4901120524599Q382.423482666221 280.2475680345474 382.9355200373696 279.97807468131134Q383.4745067438418 279.6816319927516 383.7440000970779 279.43908797483914Q384.0404427856376 279.1965439569266 384.22908813290286 279.1965439569266L384.22908813290286 279.1965439569266Q384.6872268334043 279.1965439569266 385.118416198582 279.81637866936967Q385.5496055637598 280.43621338181265 385.8729975876431 281.35249078281544Q386.22333894685005 282.2418188484945 386.4119842941153 283.3736909320862Q386.6006296413806 284.5055630156778 386.6006296413806 285.6374350992694L386.6006296413806 285.6374350992694Q386.6006296413806 287.3621925599805 386.1155416055556 289.19474736198595Q385.6304535697306 291.0542514993151 384.6872268334043 292.50951560679005Q383.7440000970779 293.99172904958857 382.31568532492656 294.93495578591495Q380.9143198880988 295.87818252224133 379.0009170801225 295.87818252224133L379.0009170801225 295.87818252224133Q377.9768423378253 295.87818252224133 375.17411146416987 295.8242838515941Q372.37138059051443 295.79733451627044 368.78711899247423 295.68953717497607Q365.1759080591105 295.6086891690052 361.1874064312162 295.5008918277108Q357.2258541386455 295.4200438217399 353.80328855254703 295.31224648044554L353.80328855254703 295.31224648044554Z " fill="#eef1ff" transform="matrix(0.7561656290518322,0,0,0.7561656290518319,0,32.16873039812195)"/><path d="M658.4295893643147 295.31224648044554L658.4295893643147 405.31943327142227Q658.4295893643147 411.7603244137651 657.6211093046064 416.31476208345515Q656.8126292448982 420.8422504178216 655.4112638080704 423.6988799621243Q653.982949035919 426.5285601711034 651.9347995513247 427.84907760196035Q649.9135994020539 429.1965443681408 647.5420578935763 429.1965443681408L647.5420578935763 429.1965443681408Q645.7364524268943 429.1965443681408 643.5535562656819 427.9568749432547Q641.3706601044695 426.71720551836864 639.4303079611695 424.9116000516868Q637.4899558178696 423.1329439203285 636.2233370576599 421.21954111235226Q634.9297689621267 419.3330876396995 634.9297689621267 417.90477286754816L634.9297689621267 417.90477286754816Q634.9297689621267 416.96154613122184 635.1723129800391 416.7190021133093Q635.4148569979517 416.5034074307204 635.8460463631294 416.530356766044Q636.2772357283071 416.5842554366913 636.8701211054266 416.7729007839566Q637.4899558178696 416.96154613122184 638.2445372069307 416.96154613122184L638.2445372069307 416.96154613122184Q640.9125214039681 416.96154613122184 642.098292158207 413.59287921577055Q643.2840629124458 410.25116163564286 643.2840629124458 402.8400944216501L643.2840629124458 402.8400944216501L643.2840629124458 295.68953717497607Q634.28298491436 296.4441185640371 625.9286909640408 298.86955874316203Q617.6013463490452 301.29499892228694 611.2413032126733 306.11892994521315Q604.9082094116249 310.94286096813937 601.1083531309959 318.6773202060155Q597.3354461856904 326.384830108568 597.3354461856904 337.6766016091606L597.3354461856904 337.6766016091606Q597.3354461856904 342.6891779793522 598.3325715926641 346.7046289425701Q599.302747664314 350.74702924111165 600.9197077837306 353.95400014462126Q602.5366679031473 357.18792038345447 604.4770200464471 359.640309897903Q606.4173721897471 362.11964874767506 608.3038256623998 364.0061022203278L608.3038256623998 364.0061022203278Q609.9207857818163 363.5210141845028 610.5945191649067 364.38339291485835Q611.2413032126733 365.2457716452139 611.2413032126733 366.754934423336L611.2413032126733 366.754934423336Q611.2413032126733 368.64138789598877 610.4597724882886 370.6895373805831Q609.6512924285803 372.71073752985393 608.3038256623998 374.3815963199177Q606.9833082315429 376.0255057746579 605.3393987768027 377.130428522926Q603.6685399867389 378.2084019358704 601.9707318613514 378.2084019358704L601.9707318613514 378.2084019358704Q601.2161504722903 378.2084019358704 600.4885184185529 378.01975658860516Q599.787835700139 377.8311112413398 599.0332543110779 377.1843271935732L599.0332543110779 377.1843271935732Q596.9581554911599 375.6482150801274 594.0206779408865 372.1987001587053Q591.0832003906129 368.74918523728326 588.4152161935755 363.6288115257973Q585.7741813318618 358.5084378143113 583.8607785238854 351.9327999953504Q581.9743250512327 345.33021284106593 581.9743250512327 337.6766016091606L581.9743250512327 337.6766016091606Q581.9743250512327 323.6359979055598 587.1755467686894 312.93711178208656Q592.4037178214697 302.2382256586133 601.6742891727916 294.9888544565622Q610.9718098594373 287.739483254511 623.7188454675048 284.04742431517644Q636.4658810755724 280.35536537584187 651.6114075274414 280.35536537584187L651.6114075274414 280.35536537584187Q655.1148211195107 280.35536537584187 660.1004481543786 280.38231471116546Q665.0591258539229 280.43621338181265 669.9908542181435 280.54401072310714Q674.9225825823642 280.6248587290779 678.8571855396112 280.6787573997252Q682.7917884968583 280.7326560703724 684.1931539336861 280.7326560703724L684.1931539336861 280.7326560703724Q685.4328233585721 280.7326560703724 686.2413034182805 280.4901120524599Q687.0497834779887 280.2475680345474 687.5618208491373 279.97807468131134Q688.1008075556095 279.6816319927516 688.3703009088456 279.43908797483914Q688.6667435974053 279.1965439569266 688.8553889446706 279.1965439569266L688.8553889446706 279.1965439569266Q689.313527645172 279.1965439569266 689.7447170103497 279.81637866936967Q690.1759063755276 280.43621338181265 690.4992983994108 281.35249078281544Q690.8496397586177 282.2418188484945 691.038285105883 283.3736909320862Q691.2269304531483 284.5055630156778 691.2269304531483 285.6374350992694L691.2269304531483 285.6374350992694Q691.2269304531483 287.3621925599805 690.7418424173234 289.19474736198595Q690.2567543814984 291.0542514993151 689.313527645172 292.50951560679005Q688.3703009088456 293.99172904958857 686.9419861366943 294.93495578591495Q685.5406206998665 295.87818252224133 683.6272178918903 295.87818252224133L683.6272178918903 295.87818252224133Q682.603143149593 295.87818252224133 679.8004122759376 295.8242838515941Q676.9976814022822 295.79733451627044 673.4134198042419 295.68953717497607Q669.8022088708782 295.6086891690052 665.8137072429839 295.5008918277108Q661.8521549504133 295.4200438217399 658.4295893643147 295.31224648044554L658.4295893643147 295.31224648044554ZM726.6383570683721 359.7481072391974L726.6383570683721 359.7481072391974Q726.6383570683721 365.1379743039194 724.8058022663665 370.82428405720117Q722.9462981290375 376.51059381048293 719.3081378603501 381.5770688513216Q715.6699775916627 386.6435438921604 710.3070598622644 390.68594419070195Q704.9441421328659 394.7013951539198 697.9373149487272 396.77649397383783L697.9373149487272 396.77649397383783Q698.8805416850536 399.25583282361 700.443603133823 401.46567832014597Q702.0066645825924 403.70247315200555 704.1895607438048 405.31943327142227Q706.3724569050172 406.90944405551517 709.2560357846435 407.8796201271652Q712.1665639995934 408.8228468634915 715.9394709448989 408.8228468634915L715.9394709448989 408.8228468634915Q721.6257806981806 408.8228468634915 725.6951303320458 406.6938493729263Q729.7644799659108 404.5648518823611 732.5672108395663 401.03448895496814Q735.3699417132218 397.5310753628989 737.0677498386092 393.1922323757977Q738.7655579639967 388.8264400533728 739.6279366943522 384.3797997249771L739.6279366943522 384.3797997249771Q740.3016700774424 381.1458794861439 742.3228702267132 380.0679060731995Q744.3710197113076 378.9629833249315 746.5000172018728 379.5289193667273Q748.629014692438 380.12180474384667 750.1920761412074 381.95435954585224Q751.7551375899768 383.8138636831813 751.4856442367407 386.3740505389242L751.4856442367407 386.3740505389242Q751.0814042068865 389.3115280891978 750.1920761412074 393.0844350345032Q749.3027480755283 396.8842913151322 747.4971426088464 400.7649956017321Q745.6915371421644 404.645699888332 742.888806268509 408.3916574983138Q740.1130247301771 412.1376151082956 736.0167257609884 415.0750926585691Q731.9473761271233 418.01257020884265 726.4497117211068 419.8181756755245Q720.9789966504139 421.5968318068828 713.8643721249808 421.5968318068828L713.8643721249808 421.5968318068828Q707.2348356353727 421.5968318068828 701.0095391756188 419.00969561581616Q694.8111920511885 416.39561008942604 690.0411596989095 411.5177803958525Q685.2441780113069 406.6399507022791 682.3605991316806 399.47142750619884Q679.4770202520542 392.32985364544214 679.4770202520542 383.2479276413855L679.4770202520542 383.2479276413855Q679.4770202520542 374.0582042960344 682.0372071077973 366.13509971089303Q684.5973939635402 358.2119951257517 688.7475916033762 352.44483736649903Q692.9247385785358 346.6776796072465 698.233757637287 343.389860697766Q703.5427766960381 340.1289911236092 709.1212891080254 340.1289911236092L709.1212891080254 340.1289911236092Q713.1906387418906 340.1289911236092 716.4784576513711 341.5573058957605Q719.7393272255279 342.95867133258827 722.0030713927111 345.5727568589785Q724.293764895218 348.1868423853686 725.4525863141332 351.77110398340875Q726.6383570683721 355.3823149167726 726.6383570683721 359.7481072391974ZM695.3771280929843 382.655042264266L695.3771280929843 382.655042264266Q695.3771280929843 383.51742099462155 695.4849254342787 384.3797997249771Q695.5657734402496 385.21522912000904 695.5657734402496 386.18540519165896L695.5657734402496 386.18540519165896Q699.1769843736133 384.460647730948 702.1144619238869 381.81961286923416Q705.0519394741603 379.15162867219675 707.1270382940784 375.7560124214219Q709.22908644932 372.3334468353234 710.3609585329116 368.3179958721054Q711.4928306165032 364.275595573564 711.4928306165032 359.93675258646266L711.4928306165032 359.93675258646266Q711.4928306165032 356.70283234762945 710.4148572035588 354.8972268809476Q709.3099344552907 353.1185707495893 707.423480982638 353.1185707495893L707.423480982638 353.1185707495893Q705.0519394741603 353.1185707495893 703.1924353368312 354.7085815336823Q701.3598805348257 356.3255416530989 699.9854644333216 358.93962717948915Q698.6110483318175 361.52676337055567 697.6947709308148 364.8145822800362Q696.8054428651357 368.075451854193 696.2395068233398 371.3902200989971Q695.673570781544 374.70498834380106 695.4849254342787 377.6963645647218Q695.2962800870134 380.68774078564246 695.3771280929843 382.655042264266ZM749.868684117324 392.32985364544214L749.868684117324 392.32985364544214Q748.9254573809977 395.3751285370101 746.8773078964034 395.8332672375114Q744.829158411809 396.3183552733364 742.8618569331854 395.1325845190975Q740.8676061192382 393.94681376485875 739.6279366943522 391.65612026235186Q738.3882672694662 389.3923760951686 739.0620006525564 386.93998658072013L739.0620006525564 386.93998658072013Q739.5470886883813 385.13438111403815 740.1130247301771 382.33165024038277Q740.678960771973 379.5289193667273 741.2448968137688 376.2141511219232Q741.8108328555646 372.8993828771192 742.2959208913896 369.20732393778457Q742.754059591891 365.51526499844994 743.1852489570688 361.9579527357335Q743.6164383222465 358.40064047301695 743.858982340159 355.13977089886004Q744.0745770227479 351.87890132470324 744.0745770227479 349.3995624749311L744.0745770227479 349.3995624749311Q744.0745770227479 344.3061380987688 746.7425612197853 342.2040899435272Q749.383596081499 340.1289911236092 755.5549938706058 340.1289911236092L755.5549938706058 340.1289911236092Q756.6868659541974 340.1289911236092 758.0612820557016 340.37153514152175Q759.4356981572057 340.6140791594342 760.864012929357 341.2069645365536Q762.2653783661847 341.8267992489967 763.558946461718 342.8239246559702Q764.8255652219277 343.8210500629438 765.768791958254 345.33021284106593L765.768791958254 345.33021284106593Q769.2722055503234 351.0165225943477 772.3983284478621 357.0262243715128Q775.5514006807246 363.0628754840015 779.1356622787647 370.82428405720117L779.1356622787647 370.82428405720117Q784.1482386489562 363.1437234899723 788.0019936002325 356.5141870003642Q791.8287992161852 349.8846505107561 794.3081380659572 345.14156749380066L794.3081380659572 345.14156749380066Q795.6286554968142 342.58138063805774 796.8952742570239 341.2608632072009Q798.1888423525571 339.9403457763439 799.8058024719737 339.9403457763439L799.8058024719737 339.9403457763439Q801.2071679088015 339.9403457763439 802.6893813516 340.88357251267024Q804.1446454590749 341.8267992489967 805.3304162133138 343.3359620271188Q806.5161869675527 344.8720741405646 807.2168696859665 346.6237809365993Q807.944501739704 348.37548773263387 807.944501739704 350.07329585802137L807.944501739704 350.07329585802137Q807.944501739704 351.959749330674 807.0821230093485 352.92992540232405L807.0821230093485 352.92992540232405L785.199262726577 384.1911543777118Q787.9480949295853 390.06610947825885 790.3735351087101 394.7822431598906Q792.7720259525114 399.525326176846 795.1435674609892 402.8131450863264Q797.5151089694668 406.07401466048333 799.8866504779445 407.8257214565179Q802.2581919864223 409.5774282525526 805.0070241894305 409.5774282525526L805.0070241894305 409.5774282525526Q807.944501739704 409.5774282525526 810.0734992302691 407.3945320913402Q812.2024967208345 405.2116359301278 813.684710163633 401.950766355971Q815.1399742711079 398.68989678181407 816.1370996780814 394.89004050118507Q817.134225085055 391.09018422055607 817.7810091328217 387.88321331704645L817.7810091328217 387.88321331704645Q818.3738945099411 384.8379384254785 819.6944119407981 383.46352232397436Q821.014929371655 382.0891062224702 822.4432441438063 382.0891062224702L822.4432441438063 382.0891062224702Q823.575116227398 382.0891062224702 824.814785652284 382.8167382762077Q826.0275057418464 383.51742099462155 827.02463114882 384.64929307821325Q828.0217565557936 385.78116516180484 828.6415912682367 387.2094799339562Q829.2614259806796 388.6377947061075 829.2614259806796 390.06610947825885L829.2614259806796 390.06610947825885Q829.2614259806796 390.2547548255241 829.2614259806796 390.5242481787603Q829.2614259806796 390.8206908673199 829.0727806334144 391.3866269091157L829.0727806334144 391.3866269091157Q827.8331112085283 396.2105579320419 825.8388603945812 401.51957699079315Q823.8446095806339 406.8285960495444 820.7723853537424 411.2752363779401Q817.7001611268508 415.72187670633576 813.3882674750732 418.6593542566092Q809.0763738232956 421.5968318068828 803.2014187227486 421.5968318068828L803.2014187227486 421.5968318068828Q798.8356264003237 421.5968318068828 795.2513648022837 420.3302130466731Q791.6401538689198 419.03664495113975 788.4331829654102 416.1530660715135Q785.199262726577 413.2694871918872 782.2078865056562 408.63420151622626Q779.2434596200592 403.9719665052417 776.1173367225203 397.3424300156336L776.1173367225203 397.3424300156336L763.0199597552458 415.82967404763014Q761.0526582766223 419.03664495113975 759.0045087920279 420.3302130466731Q756.9563593074336 421.5968318068828 754.3153244457197 421.5968318068828L754.3153244457197 421.5968318068828Q752.6175163203324 421.5968318068828 750.8658095242977 421.13869310638137Q749.114102728263 420.65360507055635 747.6318892854645 419.8181756755245Q746.1766251779895 418.95579694516897 745.2333984416631 417.8239248615774Q744.2632223700132 416.6920527779857 744.2632223700132 415.26373800583434L744.2632223700132 415.26373800583434Q744.2632223700132 414.320511269508 744.6944117351909 413.835423233683Q745.1256011003687 413.3772845331817 746.1227265073422 412.7035511500914Q747.1198519143159 412.02981776700113 748.6829133630852 410.7093003361443Q750.2459748118546 409.3887829052873 752.6175163203324 406.7207987082499L752.6175163203324 406.7207987082499Q757.1450046546988 401.4387289848224 761.5646956477708 395.7524192315406Q765.9574373055193 390.06610947825885 770.0537362747081 384.1911543777118L770.0537362747081 384.1911543777118Q767.0084613831401 377.1843271935732 763.6397944676888 370.5817400392887Q760.2711275522375 364.0061022203278 756.3095752596669 357.18792038345447L756.3095752596669 357.18792038345447Q756.1209299124016 360.3948912869641 755.5549938706058 365.00322762730144Q754.98905782881 369.5846146323151 754.0727804278072 374.5163429965358Q753.183452362128 379.4480713607565 752.0785296138602 384.13725570706464Q751.0005562009156 388.8264400533728 749.868684117324 392.32985364544214ZM801.1263199028306 324.95651533641666L801.1263199028306 324.95651533641666Q803.3092160640431 325.1451606836819 805.9502509257568 325.2529580249764L805.9502509257568 325.2529580249764Q808.2139950929401 325.4416033722417 811.4479153317734 325.49550204288886Q814.6548862352829 325.54940071353616 818.6433878631773 325.63024871950694L818.6433878631773 325.63024871950694L818.6433878631773 292.7520596247025Q818.6433878631773 290.6769608047846 818.3199958392939 289.4372913798985Q817.9966038154106 288.19762195501244 817.6462624562037 287.49693923659856Q817.3228704323203 286.7962565181847 816.999478408437 286.3650671530069Q816.64913704923 285.93387778782915 816.64913704923 285.44878975200413L816.64913704923 285.44878975200413Q816.64913704923 284.88285371020834 817.2150730910259 284.5055630156778Q817.7810091328217 284.1282723211473 818.7511852044717 283.8587789679112Q819.6944119407981 283.5623362793515 820.7723853537424 283.4275896027334Q821.8773081020104 283.2928429261153 822.9013828443076 283.2928429261153L822.9013828443076 283.2928429261153Q827.7522632025575 283.2928429261153 830.5280447408893 285.79913111121107Q833.3307756145448 288.3054192963068 833.3307756145448 291.8088328883762L833.3307756145448 291.8088328883762L833.3307756145448 325.8188940667722Q842.2510056066598 325.8188940667722 852.1414116704246 325.63024871950694Q862.0318177341896 325.4416033722417 871.9761224686017 324.95651533641666L871.9761224686017 324.95651533641666Q873.3235892347823 323.5551498995889 874.1320692944905 323.93244059411944Q874.9136000188753 324.3097312886501 875.1561440367877 325.7380460608014Q875.3986880547002 327.13941149762917 875.2100427074349 329.2414596528707Q875.0213973601697 331.3165584727887 874.4554613183739 333.25691061608865Q873.8895252765781 335.1972627593886 872.8923998696046 336.62557753153993Q871.8952744626309 338.05389230369127 870.6556050377449 338.05389230369127L870.6556050377449 338.05389230369127Q859.0134921779452 338.3233856569273 850.0663128505067 338.3772843275745Q841.0921841877446 338.4311829982218 833.3307756145448 338.4311829982218L833.3307756145448 338.4311829982218L833.3307756145448 399.90261687137655Q833.3307756145448 404.645699888332 835.1363810812267 406.7207987082499Q836.9419865479085 408.8228468634915 839.9603121041529 408.8228468634915L839.9603121041529 408.8228468634915Q842.8977896544263 408.8228468634915 845.0267871449917 406.7207987082499Q847.1557846355568 404.645699888332 848.7188460843262 401.51957699079315Q850.2819075330956 398.39345409325443 851.2790329400691 394.755293824567Q852.2761583470427 391.09018422055607 852.949891730133 387.88321331704645L852.949891730133 387.88321331704645Q853.5158277719288 384.8379384254785 854.8363452027857 383.46352232397436Q856.1568626336426 382.0891062224702 857.585177405794 382.0891062224702L857.585177405794 382.0891062224702Q858.7170494893855 382.0891062224702 859.9567189142716 382.8167382762077Q861.1963883391577 383.51742099462155 862.1935137461313 384.64929307821325Q863.1636898177812 385.78116516180484 863.7835245302242 387.2094799339562Q864.4033592426673 388.6377947061075 864.4033592426673 390.06610947825885L864.4033592426673 390.06610947825885Q864.4033592426673 390.2547548255241 864.4033592426673 390.5242481787603Q864.4033592426673 390.8206908673199 864.214713895402 391.3866269091157L864.214713895402 391.3866269091157Q862.975044470516 396.2105579320419 860.8460469799508 401.51957699079315Q858.7170494893855 406.8285960495444 855.3483825739343 411.2752363779401Q852.0066649938067 415.72187670633576 847.344429982822 418.6593542566092Q842.7091443071611 421.5968318068828 836.4568985120836 421.5968318068828L836.4568985120836 421.5968318068828Q832.5761942254837 421.5968318068828 829.3153246513268 420.4110610526439Q826.0275057418464 419.2522396337287 823.6559642333686 416.6381541073385Q821.3113720602146 414.02406858094827 819.9639052940341 409.9547189470831Q818.6433878631773 405.88536931321806 818.6433878631773 400.0912622186418L818.6433878631773 400.0912622186418L818.6433878631773 338.4311829982218Q815.4364169596677 338.4311829982218 812.9031794392482 338.3772843275745Q810.3968912541525 338.3233856569273 808.6990831287651 338.24253765095654L808.6990831287651 338.24253765095654Q806.704832314818 338.13474030966205 805.1956695366957 338.05389230369127L805.1956695366957 338.05389230369127Q802.9319253695126 338.05389230369127 801.1532692381542 336.00574281909684Q799.4015624421196 333.9575933345025 798.7008797237057 331.50520382005396Q798.0001970052919 329.0528143056054 798.5122343764405 327.0046648210111Q799.0242717475891 324.95651533641666 801.1263199028306 324.95651533641666ZM940.2926875139535 397.9083660574294L940.2926875139535 397.5310753628989Q937.2743619577093 402.57060106841396 933.8517963716108 406.96334272616247Q930.4561801208359 411.38303371923445 926.710222510854 414.64390329339136Q922.9642649008722 417.90477286754816 918.9757632729779 419.7642770048772Q915.0142109804073 421.5968318068828 910.8370640052476 421.5968318068828L910.8370640052476 421.5968318068828Q908.735015850006 421.5968318068828 906.4173730121756 420.76140241185084Q904.099730174345 419.8990236814953 902.1593780310452 417.95867153819535Q900.2190258877453 416.0183193948954 898.9524071275355 412.7843991560622Q897.6588390320023 409.5774282525526 897.6588390320023 404.75349722962636L897.6588390320023 404.75349722962636L897.6588390320023 295.5008918277108Q891.1370998836885 296.3632705580663 885.2890941184652 299.1929507670453Q879.4680376885653 302.049580311348 875.1561440367877 306.9543593402451Q870.8442503850101 311.88608770446575 868.3379621999144 318.89291488860437Q865.8316740148186 325.9266914080667 865.8316740148186 335.1164147534177L865.8316740148186 335.1164147534177Q865.8316740148186 340.9913698539647 867.0713434397047 345.68055420027287Q868.2840635292672 350.3697385465811 870.0088209899782 353.6306081207379Q871.7066291153657 356.8914776948947 873.4044372407532 358.6970831615766Q875.1022453661406 360.50268862825845 876.0724214377906 360.50268862825845L876.0724214377906 360.50268862825845Q876.9078508328224 360.50268862825845 877.6624322218836 360.1253979337279Q878.4170136109447 359.7481072391974 879.1985443353293 359.7481072391974L879.1985443353293 359.7481072391974Q880.7077071134515 359.7481072391974 880.7077071134515 362.11964874767506L880.7077071134515 362.11964874767506Q880.7077071134515 365.1379743039194 879.3332910119473 367.9407051775749Q877.9588749104432 370.7164867159068 875.8837760905253 372.4951428472651Q873.7817279352837 374.24684964329964 871.3293384208351 374.70498834380106Q868.849999571063 375.1900763796261 866.774900751145 373.65396426618025L866.774900751145 373.65396426618025Q864.214713895402 371.95615614079287 861.3311350157758 368.4527425487235Q858.4475561361495 364.94932895665414 856.0221159570245 359.96370192178625Q853.5966757778997 355.00502422224207 852.0336143291302 348.7527784271645Q850.4705528803609 342.50053263208696 850.4705528803609 335.1164147534177L850.4705528803609 335.1164147534177Q850.4705528803609 324.8756673304459 852.949891730133 316.76391739803915Q855.4022812445814 308.67911680095614 859.5255295490938 302.61551635314385Q863.6487778536061 296.5519159053316 869.1464422596227 292.2939209242012Q874.6441066656391 288.0089766077472 880.7077071134515 285.36794174603335Q886.7713075612637 282.69995754899594 893.0235533563413 281.5411361300807Q899.2757991514188 280.35536537584187 904.9621089047007 280.35536537584187L904.9621089047007 280.35536537584187Q906.4712716828228 280.35536537584187 907.899586454974 280.94825075296126Q909.3279012271255 281.5680854654043 910.3519759694227 282.67300821367235Q911.4030000470435 283.75098162661675 912.0767334301337 285.26014440473887Q912.7235174779004 286.7962565181847 912.7235174779004 288.4940646435721L912.7235174779004 288.4940646435721L912.7235174779004 403.5946758107112Q912.7235174779004 405.50807861868753 913.3433521903435 405.93926798386525Q913.9631869027864 406.3435080137194 914.5291229445822 406.3435080137194L914.5291229445822 406.3435080137194Q915.9574377167336 406.3435080137194 918.4098272311821 404.32230786444865Q920.8622167456306 402.2741583798542 923.7727449605804 398.90549146440304Q926.6563238402068 395.56377388427535 929.5938013904804 391.14408289120325Q932.5312789407537 386.75134123345475 934.9028204492315 382.0082582164994Q937.2743619577093 377.265175199544 938.7835247358314 372.52209218258866Q940.2926875139535 367.8059585009568 940.2926875139535 363.6288115257973L940.2926875139535 363.6288115257973L940.2926875139535 289.92237941572347Q940.2926875139535 287.1735472127152 939.915396819423 285.93387778782915Q939.5381061248925 284.6942083629431 939.5381061248925 283.67013362064586L939.5381061248925 283.67013362064586Q939.5381061248925 282.2418188484945 941.0203195676911 281.2985921121682Q942.475583675166 280.35536537584187 944.550682495084 280.35536537584187L944.550682495084 280.35536537584187Q949.4015628533338 280.35536537584187 952.4198884095781 282.8616535609376Q955.465163301146 285.36794174603335 955.465163301146 288.9791526793971L955.465163301146 288.9791526793971L955.465163301146 373.08802822438446Q955.465163301146 382.655042264266 955.5999099777641 389.63492011308114Q955.7346566543822 396.58784862657257 956.0310993429418 401.57347566144045Q956.300592696178 406.53215336098464 956.5970353847376 409.9008202764359Q956.8665287379738 413.2694871918872 957.1629714265335 415.64102870036487L957.1629714265335 415.64102870036487Q957.7289074683293 416.5034074307204 957.7289074683293 416.96154613122184L957.7289074683293 416.96154613122184Q957.7289074683293 417.90477286754816 956.7856807320029 418.7671515979037Q955.8424539956766 419.62953032825925 954.4141392235254 420.22241570537864Q952.9858244513739 420.8422504178216 951.2341176553393 421.21954111235226Q949.4824108593045 421.5968318068828 947.865450739888 421.5968318068828L947.865450739888 421.5968318068828Q945.3322132194687 421.5968318068828 943.9038984473173 420.14156769940774Q942.475583675166 418.6593542566092 941.7749009567522 415.69492737101217Q941.0472689030146 412.7035511500914 940.7777755497785 408.2569108216957Q940.4813328612188 403.78332115797645 940.2926875139535 397.9083660574294L940.2926875139535 397.9083660574294ZM955.8424539956766 324.95651533641666L955.8424539956766 324.95651533641666Q958.0253501568891 325.1451606836819 960.6663850186028 325.2529580249764L960.6663850186028 325.2529580249764Q962.9301291857861 325.4416033722417 966.1640494246194 325.49550204288886Q969.371020328129 325.54940071353616 973.3595219560232 325.63024871950694L973.3595219560232 325.63024871950694L973.3595219560232 292.7520596247025Q973.3595219560232 290.6769608047846 973.0361299321398 289.4372913798985Q972.7127379082566 288.19762195501244 972.3623965490497 287.49693923659856Q972.0390045251663 286.7962565181847 971.715612501283 286.3650671530069Q971.365271142076 285.93387778782915 971.365271142076 285.44878975200413L971.365271142076 285.44878975200413Q971.365271142076 284.88285371020834 971.931207183872 284.5055630156778Q972.4971432256677 284.1282723211473 973.4673192973177 283.8587789679112Q974.4105460336441 283.5623362793515 975.4885194465885 283.4275896027334Q976.5934421948565 283.2928429261153 977.6175169371537 283.2928429261153L977.6175169371537 283.2928429261153Q982.4683972954035 283.2928429261153 985.2441788337353 285.79913111121107Q988.0469097073908 288.3054192963068 988.0469097073908 291.8088328883762L988.0469097073908 291.8088328883762L988.0469097073908 325.8188940667722Q996.9671396995058 325.8188940667722 1006.8575457632708 325.63024871950694Q1016.7479518270356 325.4416033722417 1026.6922565614477 324.95651533641666L1026.6922565614477 324.95651533641666Q1028.039723327628 323.5551498995889 1028.8482033873365 323.93244059411944Q1029.629734111721 324.3097312886501 1029.8722781296337 325.7380460608014Q1030.1148221475464 327.13941149762917 1029.9261768002812 329.2414596528707Q1029.7375314530154 331.3165584727887 1029.1715954112196 333.25691061608865Q1028.6056593694238 335.1972627593886 1027.6085339624506 336.62557753153993Q1026.6114085554768 338.05389230369127 1025.3717391305909 338.05389230369127L1025.3717391305909 338.05389230369127Q1013.7296262707913 338.3233856569273 1004.7824469433526 338.3772843275745Q995.8083182805906 338.4311829982218 988.0469097073908 338.4311829982218L988.0469097073908 338.4311829982218L988.0469097073908 399.90261687137655Q988.0469097073908 404.645699888332 989.8525151740727 406.7207987082499Q991.6581206407545 408.8228468634915 994.6764461969989 408.8228468634915L994.6764461969989 408.8228468634915Q997.6139237472723 408.8228468634915 999.7429212378377 406.7207987082499Q1001.8719187284029 404.645699888332 1003.4349801771722 401.51957699079315Q1004.9980416259416 398.39345409325443 1005.9951670329151 394.755293824567Q1006.9922924398887 391.09018422055607 1007.666025822979 387.88321331704645L1007.666025822979 387.88321331704645Q1008.2319618647748 384.8379384254785 1009.5524792956318 383.46352232397436Q1010.8729967264885 382.0891062224702 1012.30131149864 382.0891062224702L1012.30131149864 382.0891062224702Q1013.4331835822315 382.0891062224702 1014.6728530071177 382.8167382762077Q1015.9125224320037 383.51742099462155 1016.9096478389773 384.64929307821325Q1017.8798239106274 385.78116516180484 1018.4996586230702 387.2094799339562Q1019.1194933355133 388.6377947061075 1019.1194933355133 390.06610947825885L1019.1194933355133 390.06610947825885Q1019.1194933355133 390.2547548255241 1019.1194933355133 390.5242481787603Q1019.1194933355133 390.8206908673199 1018.930847988248 391.3866269091157L1018.930847988248 391.3866269091157Q1017.691178563362 396.2105579320419 1015.5621810727969 401.51957699079315Q1013.4331835822315 406.8285960495444 1010.0645166667803 411.2752363779401Q1006.7227990866527 415.72187670633576 1002.0605640756681 418.6593542566092Q997.4252784000071 421.5968318068828 991.1730326049296 421.5968318068828L991.1730326049296 421.5968318068828Q987.2923283183297 421.5968318068828 984.0314587441729 420.4110610526439Q980.7436398346924 419.2522396337287 978.3720983262147 416.6381541073385Q976.0275061530607 414.02406858094827 974.6800393868803 409.9547189470831Q973.3595219560232 405.88536931321806 973.3595219560232 400.0912622186418L973.3595219560232 400.0912622186418L973.3595219560232 338.4311829982218Q970.1525510525137 338.4311829982218 967.6193135320943 338.3772843275745Q965.1130253469985 338.3233856569273 963.4152172216111 338.24253765095654L963.4152172216111 338.24253765095654Q961.420966407664 338.13474030966205 959.9118036295417 338.05389230369127L959.9118036295417 338.05389230369127Q957.6480594623586 338.05389230369127 955.8694033310003 336.00574281909684Q954.1176965349656 333.9575933345025 953.4170138165517 331.50520382005396Q952.7163310981379 329.0528143056054 953.2283684692865 327.0046648210111Q953.7404058404351 324.95651533641666 955.8424539956766 324.95651533641666ZM1018.7422026409828 322.88141651649875L1018.7422026409828 322.88141651649875Q1016.3706611325051 322.88141651649875 1014.2416636419398 321.9381897801723Q1012.1126661513747 320.994963043846 1010.5496047026053 319.3780029244294Q1008.9865432538359 317.7610428050128 1008.0433165175095 315.63204531444757Q1007.1000897811832 313.50304782388235 1007.1000897811832 311.05065830943386L1007.1000897811832 311.05065830943386Q1007.1000897811832 308.4904714536909 1008.0433165175095 306.3075752924784Q1008.9865432538359 304.124679131266 1010.5496047026053 302.5616176824966Q1012.1126661513747 300.99855623372724 1014.2416636419398 300.1092281680481Q1016.3706611325051 299.1929507670453 1018.7422026409828 299.1929507670453L1018.7422026409828 299.1929507670453Q1021.3023894967257 299.1929507670453 1023.4852856579382 300.1092281680481Q1025.6681818191505 300.99855623372724 1027.23124326792 302.5616176824966Q1028.794304716689 304.124679131266 1029.6836327823685 306.3075752924784Q1030.5999101833713 308.4904714536909 1030.5999101833713 311.05065830943386L1030.5999101833713 311.05065830943386Q1030.5999101833713 313.50304782388235 1029.6836327823685 315.63204531444757Q1028.794304716689 317.7610428050128 1027.23124326792 319.3780029244294Q1025.6681818191505 320.994963043846 1023.4852856579382 321.9381897801723Q1021.3023894967257 322.88141651649875 1018.7422026409828 322.88141651649875ZM1023.1888429693786 350.63923189981716L1023.1888429693786 399.90261687137655Q1023.1888429693786 400.57635025446683 1023.296640310673 402.03161436194176Q1023.3774883166438 403.5138278047403 1023.8625763524687 405.0229905828625Q1024.3476643882937 406.53215336098464 1025.3717391305909 407.69097477989993Q1026.4227632082116 408.8228468634915 1028.3092166808642 408.8228468634915L1028.3092166808642 408.8228468634915Q1031.1658462251671 408.8228468634915 1033.2948437157324 406.7207987082499Q1035.4238412062973 404.645699888332 1036.9869026550668 401.51957699079315Q1038.5499641038364 398.39345409325443 1039.600988181457 394.755293824567Q1040.6250629237543 391.09018422055607 1041.2987963068445 387.88321331704645L1041.2987963068445 387.88321331704645Q1041.8647323486402 384.9457357667729 1043.0505031028792 383.62521833591603Q1044.2362738571178 382.27775156973547 1045.610689958622 382.1430048931175Q1046.9851060601263 382.0082582164994 1048.3595221616301 382.8436876115314Q1049.7339382631344 383.7060663418868 1050.811911676079 385.08048244339096Q1051.9168344243467 386.4548985448951 1052.4288717954955 388.1527066702825Q1052.940909166644 389.8774641309936 1052.5636184721134 391.3866269091157L1052.5636184721134 391.3866269091157Q1051.2431010412565 396.2105579320419 1049.1141035506912 401.51957699079315Q1046.9851060601263 406.8285960495444 1043.670337815322 411.2752363779401Q1040.3555695705181 415.72187670633576 1035.6933345595335 418.6593542566092Q1031.0580488838727 421.5968318068828 1024.805803088795 421.5968318068828L1024.805803088795 421.5968318068828Q1020.9250988021952 421.5968318068828 1017.8798239106274 420.14156769940774Q1014.861498354383 418.6593542566092 1012.7863995344649 416.20696474216066Q1010.6843513792232 413.7545752277122 1009.6063779662788 410.4398069829081Q1008.501455218011 407.09808940278043 1008.501455218011 403.4060304634459L1008.501455218011 403.4060304634459L1008.501455218011 351.5824586361435Q1008.501455218011 348.8336264331353 1008.0972151881567 347.6209063435728Q1007.666025822979 346.38123691868674 1007.666025822979 345.33021284106593L1007.666025822979 345.33021284106593Q1007.666025822979 343.9288474042382 1009.1751886011011 343.01257000323545Q1010.6843513792232 342.1232419375563 1012.7863995344649 342.1232419375563L1012.7863995344649 342.1232419375563Q1017.6103305573911 342.1232419375563 1020.4130614310466 344.62953012265206Q1023.1888429693786 347.1358183077478 1023.1888429693786 350.63923189981716L1023.1888429693786 350.63923189981716ZM1056.7407654472731 303.45094574817574L1056.7407654472731 358.8048805028711Q1057.7917895248938 356.81062968892394 1058.7619655965436 353.44196277347265Q1059.7590910035174 350.07329585802137 1060.6753684045202 346.0039462241562Q1061.5646964701991 341.93459659029105 1062.3192778592602 337.48795626189536Q1063.0738592483212 333.0143665981761 1063.666744625441 328.75637161704566Q1064.2326806672368 324.49837663591535 1064.5560726911199 320.75241902593353Q1064.8794647150035 317.0064614159517 1064.8794647150035 314.3654265542379L1064.8794647150035 314.3654265542379Q1064.8794647150035 304.6906151730618 1063.4511499428522 300.19007617401894Q1062.0497845060245 295.68953717497607 1059.6782429975465 295.68953717497607L1059.6782429975465 295.68953717497607Q1058.9236616084854 295.68953717497607 1058.3577255666896 296.4441185640371Q1057.7917895248938 297.1986999530982 1057.3875494950398 298.3844707073371Q1057.0102588005093 299.5702414615759 1056.875512123891 300.94465756308Q1056.7407654472731 302.31907366458415 1056.7407654472731 303.45094574817574L1056.7407654472731 303.45094574817574ZM1084.3099354833262 388.0718586643117L1084.3099354833262 388.0718586643117Q1084.875871525122 385.21522912000904 1086.061642279361 383.9486103597994Q1087.2474130336 382.655042264266 1088.6218291351038 382.52029558764804Q1089.996245236608 382.38554891102996 1091.4245600087593 383.1940289707383Q1092.825925445587 384.00250903044656 1093.8769495232082 385.3230264613034Q1094.9279736008289 386.6435438921604 1095.4400109719772 388.31440268222417Q1095.952048343126 389.95831213696437 1095.5747576485956 391.57527225638097L1095.5747576485956 391.57527225638097Q1094.2542402177382 395.45597654298086 1091.8018507032898 400.6571982604377Q1089.3225118535179 405.88536931321806 1085.5496049082121 410.520654988879Q1081.7497486275834 415.15594066453997 1076.6293749160973 418.3898609033732Q1071.5090012046116 421.5968318068828 1064.8794647150035 421.5968318068828L1064.8794647150035 421.5968318068828Q1059.300952303016 421.5968318068828 1055.0429573218858 419.7642770048772Q1050.7580130054316 417.90477286754816 1047.8744341258052 414.5361059520969Q1044.9908552461789 411.1943883719692 1043.5086418033807 406.50520402566104Q1042.0533776959055 401.8160196793529 1042.0533776959055 396.02191258477666L1042.0533776959055 396.02191258477666L1042.0533776959055 307.73589006462976Q1042.0533776959055 302.31907366458415 1043.4277937974098 297.7376866595704Q1044.8022098989136 293.129350319233 1047.2276500780386 289.8684807450762Q1049.62614092184 286.6076111709194 1052.860061160673 284.74810703359026Q1056.067032064183 282.9155522315848 1059.6782429975465 282.9155522315848L1059.6782429975465 282.9155522315848Q1063.9362379786771 282.9155522315848 1066.8737155289505 284.4786136803542Q1069.8111930792238 286.04167512912363 1071.697646551877 288.57491264954297Q1073.611049359853 291.1350995052859 1074.6890227727972 294.44986775009Q1075.7939455210653 297.764635994894 1076.2520842215667 301.24110025163975Q1076.7371722573916 304.6906151730618 1076.8180202633625 308.0592820885131Q1076.925817604657 311.4279490039644 1076.925817604657 314.17678120697263L1076.925817604657 314.17678120697263Q1076.925817604657 321.26445639708214 1075.5783508384766 329.079763640929Q1074.2578334076197 336.895070884776 1072.2366332583488 344.4947834460341Q1070.1884837737543 352.0675466719685 1067.7630435946298 359.02047518545993Q1065.3645527508284 366.00035303427495 1063.1277579189687 371.3902200989971Q1060.9179124224324 376.7800871637191 1059.166205626398 380.20265274981756Q1057.3875494950398 383.62521833591603 1056.7407654472731 384.1911543777118L1056.7407654472731 384.1911543777118L1056.7407654472731 395.45597654298086Q1056.7407654472731 401.3309316435279 1059.1931549617216 405.0768892535097Q1061.672493811494 408.8228468634915 1067.0623608762157 408.8228468634915L1067.0623608762157 408.8228468634915Q1070.3771291210196 408.8228468634915 1073.260708000646 406.7746973788972Q1076.1712362155959 404.75349722962636 1078.381081712132 401.65432366741123Q1080.6178765439918 398.5820994405197 1082.127039322114 394.94393917183226Q1083.636202100236 391.27882956782133 1084.3099354833262 388.0718586643117ZM1095.7634029958604 389.58102144243384L1095.7634029958604 389.58102144243384Q1095.0088216067993 392.6262963340018 1092.9337227868814 393.32697905241565Q1090.8586239669635 394.0276617708295 1088.810474482369 393.1922323757977Q1086.762324997775 392.32985364544214 1085.3879088962708 390.2547548255241Q1084.0134927947665 388.1527066702825 1084.5794288365623 385.70031715583406L1084.5794288365623 385.70031715583406Q1086.0077436087136 379.2594260134911 1088.7026771410747 371.44411876964426Q1091.4245600087593 363.6288115257973 1094.065594870473 355.8674029525975L1094.065594870473 355.8674029525975Q1092.6372800983218 353.6845067913851 1091.8018507032898 351.4477119595255Q1090.9394719729344 349.2109171276658 1090.9394719729344 346.75852761321727L1090.9394719729344 346.75852761321727Q1090.9394719729344 344.3061380987688 1092.7989761102635 341.5842552310841Q1094.6315309122692 338.8893216987231 1097.245616438659 336.62557753153993Q1099.8327526297257 334.33488402903305 1102.6354835033812 332.8796199215581Q1105.4382143770367 331.42435581408307 1107.4324651909837 331.42435581408307L1107.4324651909837 331.42435581408307Q1110.9358787830533 331.42435581408307 1112.6875855790877 333.76894798723725Q1114.4392923751225 336.1404894957149 1114.4392923751225 340.1289911236092L1114.4392923751225 340.1289911236092Q1114.4392923751225 342.3118872848216 1113.7386096567084 344.4408847753868Q1113.0109776029713 346.569882265952 1112.1755482079393 348.42938640328117Q1111.3131694775839 350.26194120528663 1110.6124867591698 351.5824586361435Q1109.8848547054322 352.92992540232405 1109.8040066994618 353.3072160968546L1109.8040066994618 353.3072160968546Q1113.1996229502365 359.37081654466687 1116.891681889571 364.0061022203278Q1120.5837408289058 368.64138789598877 1123.682914391121 373.19582556567883Q1126.755138618012 377.750263235369 1128.7493894319596 382.8436876115314Q1130.7436402459066 387.96406132301723 1130.7436402459066 394.89004050118507L1130.7436402459066 394.89004050118507Q1130.7436402459066 396.58784862657257 1130.501096227994 398.39345409325443Q1130.2585522100817 400.1990595599363 1129.7734641742568 401.8160196793529L1129.7734641742568 401.8160196793529Q1133.196029760355 401.1422862962626 1135.8101152867453 399.7139715241113Q1138.397251477812 398.31260608728354 1140.337603621112 396.4531019499545Q1142.2779557644117 394.59359781262543 1143.571523859945 392.4376509867365Q1144.838142620155 390.2547548255241 1145.7005213505104 387.88321331704645L1145.7005213505104 387.88321331704645Q1146.751545428131 385.13438111403815 1147.7756201704283 383.8947116891521Q1148.826644248049 382.655042264266 1150.1471616789058 382.655042264266L1150.1471616789058 382.655042264266Q1151.3868311037918 382.655042264266 1152.6534498640017 383.46352232397436Q1153.947017959535 384.2720023836827 1154.9441433665083 385.5116718085688Q1155.941268773482 386.75134123345475 1156.5611034859253 388.0718586643117Q1157.1539888630446 389.3923760951686 1157.1539888630446 390.4434001727894L1157.1539888630446 390.4434001727894Q1157.1539888630446 391.8447656096171 1156.3994074739835 393.83901642356426Q1155.6448260849224 395.8332672375114 1154.3782073247125 397.9083660574294Q1153.0846392291796 400.01041421267104 1151.4946284450866 401.950766355971Q1149.8776683256697 403.8911184992708 1148.1529108649588 405.31943327142227L1148.1529108649588 405.31943327142227Q1143.6254225305925 409.0114922107568 1137.4540247414857 411.5177803958525Q1131.3095762877024 414.02406858094827 1122.2007009483223 414.69780196403855L1122.2007009483223 414.69780196403855Q1118.6972873562531 417.7161275202829 1113.9272550039736 419.65647966358284Q1109.1302733163711 421.5968318068828 1103.1744702098536 421.5968318068828L1103.1744702098536 421.5968318068828Q1100.1291953182854 421.5968318068828 1096.9491737500994 420.8422504178216Q1093.7691521819133 420.08766902876056 1090.885573302287 418.9018982745218Q1088.001994422661 417.7161275202829 1085.630452914183 416.31476208345515Q1083.2589114057055 414.8864473113038 1081.8575459688777 413.4581325391525L1081.8575459688777 413.4581325391525Q1078.2463350355138 410.035566953054 1077.195310957893 406.58605203163194Q1076.1712362155959 403.13653711020976 1076.6832735867447 400.38770490720157Q1077.195310957893 397.63887270419326 1078.7314230713391 395.8871659081587Q1080.2405858494612 394.135459112124 1081.8575459688777 394.135459112124L1081.8575459688777 394.135459112124Q1082.800772705204 394.135459112124 1084.821972854475 394.94393917183226Q1086.8701223390694 395.7524192315406 1089.5111572007831 397.0190379917503Q1092.1791413978203 398.31260608728354 1095.3052642953594 399.7139715241113Q1098.431387192898 401.1422862962626 1101.5575100904366 402.4089050564723Q1104.6836329879757 403.70247315200555 1107.6750092088964 404.5109532117139Q1110.6394360944932 405.31943327142227 1113.1187749442656 405.31943327142227L1113.1187749442656 405.31943327142227Q1114.7087857283586 403.4060304634459 1116.056252494539 400.2799075659071Q1117.3767699253958 397.15378466836836 1117.3767699253958 393.46172572903373L1117.3767699253958 393.46172572903373Q1117.3767699253958 388.90728805934367 1116.1371005005099 385.0265837727438Q1114.897431075624 381.1458794861439 1112.9301295970004 377.8311112413398Q1110.9358787830533 374.5163429965358 1108.4295905979575 371.6327641169095Q1105.8963530775382 368.74918523728326 1103.3631155571188 366.1889983815402L1103.3631155571188 366.1889983815402Q1101.0724220546117 371.7675107935276 1099.3746139292243 377.2112765288968Q1097.676805803837 382.655042264266 1095.7634029958604 389.58102144243384Z " fill="#eef1ff" transform="matrix(0.7561656290518322,0,0,0.7561656290518319,0,32.16873039812195)"/></g></svg>